# AST/ASF file generated using VICON BodyLanguage
# -----------------------------------------------
:version 1.10
:name VICON
:units
  mass 1.0
  length 0.45
  angle deg
:documentation
   .ast/.asf automatically generated from VICON data using
   VICON BodyBuilder and BodyLanguage model FoxedUp or BRILLIANT.MOD
:root
   order TX TY TZ RX RY RZ
   axis XYZ
   position 0 0 0  
   orientation 0 0 0 
:bonedata
  begin
     id 1 
     name lhipjoint
     direction 0.578396 -0.714046 0.394458 
     length 2.21935 
     axis 0 0 0  XYZ
  end
  begin
     id 2 
     name lfemur
     direction 0.34202 -0.939693 0  
     length 6.39105  
     axis 0 0 20  XYZ
    dof rx ry rz
    limits (-160.0 20.0)
           (-70.0 70.0)
           (-60.0 70.0)
  end
  begin
     id 3 
     name ltibia
     direction 0.34202 -0.939693 0   
     length 6.99037   
     axis 0 0 20   XYZ
    dof rx
    limits (-10.0 170.0)
  end
  begin
     id 4 
     name lfoot
     direction 0.0582372 -0.160005 0.985397   
     length 2.06111   
     axis -90 7.62852e-016 20   XYZ
    dof rx rz
    limits (-45.0 90.0)
           (-70.0 20.0)
  end
  begin
     id 5 
     name ltoes
     direction 1.53556e-011 -4.21875e-011 1   
     length 1.04074   
     axis -90 7.62852e-016 20   XYZ
    dof rx
    limits (-90.0 20.0)
  end
  begin
     id 6 
     name rhipjoint
     direction -0.558179 -0.726269 0.40121   
     length 2.182  
     axis 0 0 0  XYZ 
  end
  begin
     id 7 
     name rfemur
     direction -0.34202 -0.939693 0   
     length 6.51172   
     axis 0 0 -20   XYZ
    dof rx ry rz
    limits (-160.0 20.0)
           (-70.0 70.0)
           (-70.0 60.0)
  end
  begin
     id 8 
     name rtibia
     direction -0.34202 -0.939693 0   
     length 7.02607   
     axis 0 0 -20   XYZ
    dof rx
    limits (-10.0 170.0)
 end
 begin
     id 9 
     name rfoot
     direction -0.0788856 -0.216737 0.973038   
     length 1.96734  
     axis -90 -7.62852e-016 -20   XYZ
    dof rx rz
    limits (-45.0 90.0)
           (-20.0 70.0)
  end
  begin
     id 10 
     name rtoes
     direction -1.53567e-011 -4.21783e-011 1   
     length 0.990825   
     axis -90 -7.62852e-016 -20   XYZ
    dof rx
    limits (-90.0 20.0)
  end
  begin
     id 11 
     name lowerback
     direction 0.00668177 0.999323 -0.0361741   
     length 1.7655   
     axis 0 0 0   XYZ
    dof rx ry rz
    limits (-20.0 45.0)
           (-30.0 30.0)
           (-30.0 30.0)
  end
  begin
     id 12 
     name upperback
     direction -0.00222086 0.99851 0.0545167   
     length 1.74912   
     axis 0 0 0   XYZ
    dof rx ry rz
    limits (-20.0 45.0)
           (-30.0 30.0)
           (-30.0 30.0)
  end
  begin
     id 13 
     name thorax
     direction -0.00733971 0.997496 0.0703443   
     length 1.75715   
     axis 0 0 0   XYZ
    dof rx ry rz
    limits (-20.0 45.0)
           (-30.0 30.0)
           (-30.0 30.0)
  end
  begin
     id 14 
     name lowerneck
     direction 0.0279797 0.994795 0.0979765   
     length 1.46939   
     axis 0 0 0   XYZ
    dof rx ry rz
    limits (-20.0 45.0)
           (-30.0 30.0)
           (-30.0 30.0)
  end
  begin
     id 15 
     name upperneck
     direction 0.00339187 0.976776 -0.214238   
     length 1.48018   
     axis 0 0 0   XYZ
    dof rx ry rz
    limits (-20.0 45.0)
           (-30.0 30.0)
           (-30.0 30.0)
  end
  begin
     id 16
     name head
     direction -0.00263506 0.996603 -0.0823096  
     length 1.4976  
     axis 0 0 0   XYZ
    dof rx ry rz
    limits (-20.0 45.0)
           (-30.0 30.0)
           (-30.0 30.0)
  end
  begin
     id 17 
     name lclavicle
     direction 0.894044 0.44508 -0.0508781  
     length 3.03024  
     axis 0 0 0   XYZ
    dof ry rz
    limits (-20.0 10.0)
           (0.0 20.0)
  end
  begin
     id 18 
     name lhumerus
     direction 1 -4.48961e-011 -2.39475e-018   
     length 4.4661   
     axis 180 -30 -90   XYZ
    dof rx ry rz
    limits (-60.0 90.0)
           (-90.0 90.0)
           (-90.0 90.0)
  end
  begin
     id 19
     name lradius
     direction 1 -4.48961e-011 9.29328e-028   
     length 3.41414   
     axis 180 -30 -90   XYZ
    dof rx
    limits (-10.0 170.0)
  end
  begin
     id 20
     name lwrist
     direction 1 -4.48985e-011 1.53461e-026   
     length 1.70707   
     axis -1.09697e-014 90 90   XYZ
    dof ry
    limits (-180.0 0.0)
 end
  begin
     id 21 
     name lhand
     direction 1 -4.48966e-011 3.06923e-026   
     length 0.328298   
     axis -1.95843e-014 90 90   XYZ
    dof rx rz
    limits (-90.0 90.0)
           (-45.0 45.0)
  end
  begin
     id 22 
     name lfingers
     direction 1 -4.48893e-011 6.13845e-026   
     length 0.264682   
     axis -3.91686e-014 90 90   XYZ
    dof rx
    limits (0.0 90.0)
  end
  begin
     id 23
     name lthumb
     direction 0.707107 -6.34876e-011 0.707107   
     length 0.380032   
     axis -90 45 2.85299e-015   XYZ
    dof rx rz
    limits (-45.0 45.0)
           (-45.0 45.0)
  end
  begin
     id 24 
     name rclavicle
     direction -0.936955 0.347862 -0.0332887   
     length 3.26927  
     axis 0 0 0   XYZ 
    dof ry rz
    limits (-10.0 20.0)
           (-20.0 0.0)
  end
  begin
     id 25 
     name rhumerus
     direction -1 -4.4896e-011 1.78637e-018  
     length 4.40431   
     axis 180 30 90   XYZ
    dof rx ry rz
    limits (-90.0 60.0)
           (-90.0 90.0)
           (-90.0 90.0)
  end
  begin
     id 26 
     name rradius
     direction -1 -4.48955e-011 9.34036e-027   
     length 3.04688   
     axis 180 30 90   XYZ
    dof rx
    limits (-10.0 170.0)
  end
  begin
     id 27 
     name rwrist
     direction -1 -4.49011e-011 1.53461e-026   
     length 1.52344   
     axis -1.09697e-014 -90 -90   XYZ
    dof ry
    limits (-180.0 0.0)
  end
  begin
     id 28
     name rhand
     direction -1 -4.48834e-011 3.06923e-026   
     length 0.500489   
     axis -1.95843e-014 -90 -90   XYZ
    dof rx rz
    limits (-90.0 90.0)
           (-45.0 45.0)
  end
  begin
     id 29
     name rfingers
     direction -1 -4.48967e-011 6.13845e-026   
     length 0.403507   
     axis -3.91686e-014 -90 -90   XYZ
    dof rx
    limits (0.0 90.0)
  end
  begin
     id 30
     name rthumb
     direction -0.707107 -6.34826e-011 0.707107   
     length 0.579358   
     axis -90 -45 -2.85299e-015   XYZ
    dof rx rz
    limits (-45.0 45.0)
           (-45.0 45.0)
  end
:hierarchy
  begin
    root lhipjoint rhipjoint lowerback
    lhipjoint lfemur
    lfemur ltibia
    ltibia lfoot
    lfoot ltoes
    rhipjoint rfemur
    rfemur rtibia
    rtibia rfoot
    rfoot rtoes
    lowerback upperback
    upperback thorax
    thorax lowerneck lclavicle rclavicle
    lowerneck upperneck
    upperneck head
    lclavicle lhumerus
    lhumerus lradius
    lradius lwrist
    lwrist lhand lthumb
    lhand lfingers
    rclavicle rhumerus
    rhumerus rradius
    rradius rwrist
    rwrist rhand rthumb
    rhand rfingers
  end

#!OML:ASF H:\IndianDance\Patient Classification 1\Patient 1\Session 1\dancer.ASF
:FULLY-SPECIFIED
:DEGREES
1576
root -28.1932 13.8216 -2.27332 -164.204 -13.2489 -178.767
lowerback 16.8323 -0.306378 9.45555
upperback -6.00481 2.02979 3.74662
thorax -16.3426 0.0624054 -1.59556
lowerneck -9.53811 -15.5147 -9.54822
upperneck -4.08427 -20.5358 16.5356
head 3.03124 -10.1034 4.90512
rclavicle -1.11319e-014 -7.95139e-015
rhumerus 39.9771 -46.0507 -49.8629
rradius 32.4247
rwrist -73.4588
rhand 4.10022 -6.22445
rfingers 7.12502
rthumb 29.5114 -33.8991
lclavicle -1.11319e-014 -7.95139e-015
lhumerus -21.1774 42.2816 5.02175
lradius 44.7349
lwrist 65.9393
lhand 4.69374 23.4613
lfingers 7.12502
lthumb 30.0778 -308.966
rfemur -66.2646 -36.6619 26.8866
rtibia 92.1174
rfoot 15.7655 6.46641
rtoes 11.0628
lfemur 115.779 148.167 138.979
ltibia 71.1482
lfoot -18.985 -9.15923
ltoes 10.3887
1577
root -28.1796 13.8228 -2.18934 -163.835 -13.5561 -178.89
lowerback 16.9018 -0.389856 9.46391
upperback -6.01169 1.9283 3.68254
thorax -16.4033 0.0124149 -1.64435
lowerneck -9.6093 -15.5406 -9.48979
upperneck -4.06915 -20.5876 16.6627
head 3.06328 -10.1266 4.91957
rclavicle -4.17448e-014 1.74931e-014
rhumerus 39.8586 -46.3461 -50.2143
rradius 32.3007
rwrist -73.2969
rhand 4.22696 -6.2377
rfingers 7.12502
rthumb 29.6324 -33.8909
lclavicle -4.17448e-014 1.74931e-014
lhumerus -21.4136 42.326 5.0152
lradius 44.5784
lwrist 65.9425
lhand 4.62333 23.5136
lfingers 7.12502
lthumb 30.0106 -308.901
rfemur -65.5013 -36.1722 26.9006
rtibia 90.9652
rfoot 13.5928 6.58797
rtoes 8.78644
lfemur 114.485 147.934 138.528
ltibia 71.7995
lfoot -16.9892 -11.4249
ltoes 10.8712
1578
root -28.1657 13.8237 -2.10462 -163.48 -13.814 -179.053
lowerback 16.999 -0.482163 9.45054
upperback -6.0024 1.81088 3.57297
thorax -16.462 -0.0430947 -1.72998
lowerneck -9.68277 -15.5519 -9.41751
upperneck -4.03434 -20.6286 16.8252
head 3.10355 -10.1442 4.94229
rclavicle 2.5842e-014 5.725e-014
rhumerus 39.8772 -46.694 -50.769
rradius 32.1475
rwrist -73.1063
rhand 4.3285 -6.24952
rfingers 7.12502
rthumb 29.7293 -33.8855
lclavicle 2.5842e-014 5.725e-014
lhumerus -21.598 42.4221 4.96731
lradius 44.3837
lwrist 65.9264
lhand 4.53753 23.5783
lfingers 7.12502
lthumb 29.9288 -308.822
rfemur -64.9423 -35.7651 26.9723
rtibia 90.0219
rfoot 11.0541 6.65642
rtoes 5.84515
lfemur 113.192 147.664 138.111
ltibia 72.5306
lfoot -14.7649 -13.8648
ltoes 11.3531
1579
root -28.1515 13.8197 -2.01953 -163.149 -14.0221 -179.251
lowerback 17.1155 -0.577239 9.38435
upperback -5.9664 1.67775 3.43833
thorax -16.5011 -0.0988596 -1.81175
lowerneck -9.77693 -15.5452 -9.29986
upperneck -3.98634 -20.653 16.9863
head 3.14445 -10.1535 4.95903
rclavicle -1.90833e-014 -3.81667e-014
rhumerus 40.0771 -47.0882 -51.5426
rradius 31.9636
rwrist -72.8684
rhand 4.38606 -6.24985
rfingers 7.12502
rthumb 29.7842 -33.876
lclavicle -1.90833e-014 -3.81667e-014
lhumerus -21.7528 42.5828 4.889
lradius 44.1603
lwrist 65.8656
lhand 4.46083 23.6412
lfingers 7.12502
lthumb 29.8556 -308.745
rfemur -64.6742 -35.475 27.1115
rtibia 89.3751
rfoot 8.49301 6.53781
rtoes 2.6689
lfemur 111.901 147.369 137.744
ltibia 73.3407
lfoot -12.3297 -16.4292
ltoes 11.6261
1580
root -28.1373 13.8119 -1.93413 -162.851 -14.1872 -179.474
lowerback 17.2459 -0.637408 9.24907
upperback -5.90866 1.57717 3.31893
thorax -16.5196 -0.130456 -1.84788
lowerneck -9.82858 -15.5548 -9.25013
upperneck -3.95778 -20.6901 17.1563
head 3.18238 -10.1693 4.98904
rclavicle -1.11319e-014 4.77083e-015
rhumerus 40.3145 -47.5013 -52.2791
rradius 31.7873
rwrist -72.6494
rhand 4.38297 -6.25957
rfingers 7.12502
rthumb 29.7813 -33.8862
lclavicle -1.11319e-014 4.77083e-015
lhumerus -21.8344 42.7933 4.93087
lradius 43.9178
lwrist 65.7324
lhand 4.41971 23.6938
lfingers 7.12502
lthumb 29.8163 -308.686
rfemur -64.7104 -35.3146 27.318
rtibia 89.0116
rfoot 6.24265 6.1833
rtoes -0.139597
lfemur 110.643 147.061 137.454
ltibia 74.1975
lfoot -9.67503 -19.0388
ltoes 11.8169
1581
root -28.1239 13.7998 -1.84856 -162.594 -14.3188 -179.708
lowerback 17.3872 -0.657106 9.06036
upperback -5.83191 1.52041 3.22975
thorax -16.5175 -0.134255 -1.83292
lowerneck -9.817 -15.5862 -9.29016
upperneck -3.95583 -20.7425 17.3276
head 3.21356 -10.1934 5.03447
rclavicle 2.34566e-014 -4.6118e-014
rhumerus 40.5669 -47.9183 -52.9311
rradius 31.6228
rwrist -72.4323
rhand 4.32589 -6.27777
rfingers 7.12502
rthumb 29.7268 -33.9142
lclavicle 2.34566e-014 -4.6118e-014
lhumerus -21.8507 43.0018 5.12468
lradius 43.6797
lwrist 65.5621
lhand 4.40398 23.7297
lfingers 7.12502
lthumb 29.8013 -308.647
rfemur -65.0462 -35.2823 27.5838
rtibia 88.9012
rfoot 4.54784 5.62773
rtoes -2.27842
lfemur 109.45 146.749 137.254
ltibia 75.098
lfoot -6.90447 -21.4879
ltoes 11.9179
1582
root -28.112 13.7853 -1.76291 -162.387 -14.4285 -179.932
lowerback 17.536 -0.665529 8.8534
upperback -5.72528 1.47447 3.16039
thorax -16.4825 -0.12842 -1.78879
lowerneck -9.79795 -15.6156 -9.34498
upperneck -3.95709 -20.7881 17.4873
head 3.24197 -10.214 5.08026
rclavicle -1.07344e-014 4.92986e-014
rhumerus 40.9048 -48.3177 -53.6226
rradius 31.4565
rwrist -72.1765
rhand 4.24023 -6.29126
rfingers 7.12502
rthumb 29.645 -33.9422
lclavicle -1.07344e-014 4.92986e-014
lhumerus -21.8572 43.2155 5.37231
lradius 43.4608
lwrist 65.3738
lhand 4.40869 23.7527
lfingers 7.12502
lthumb 29.8058 -308.625
rfemur -65.6318 -35.3589 27.8916
rtibia 88.973
rfoot 3.54976 4.97984
rtoes -3.55922
lfemur 108.343 146.443 137.172
ltibia 76.0545
lfoot -4.21663 -23.4929
ltoes 12.0855
1583
root -28.1017 13.7695 -1.67744 -162.24 -14.5234 -180.122
lowerback 17.6993 -0.67017 8.66757
upperback -5.59311 1.43918 3.11082
thorax -16.4241 -0.118055 -1.73717
lowerneck -9.77449 -15.64 -9.40619
upperneck -3.94385 -20.8251 17.6316
head 3.2718 -10.2293 5.12351
rclavicle 1.98785e-015 -2.54444e-014
rhumerus 41.3059 -48.6817 -54.3519
rradius 31.2893
rwrist -71.8702
rhand 4.13855 -6.29761
rfingers 7.12502
rthumb 29.548 -33.9658
lclavicle 1.98785e-015 -2.54444e-014
lhumerus -21.8635 43.4033 5.65494
lradius 43.2691
lwrist 65.1961
lhand 4.41887 23.7666
lfingers 7.12502
lthumb 29.8155 -308.613
rfemur -66.3764 -35.4801 28.1939
rtibia 89.1337
rfoot 3.18843 4.3375
rtoes -3.38074
lfemur 107.354 146.136 137.236
ltibia 77.0879
lfoot -2.11041 -24.7222
ltoes 11.8342
1584
root -28.0938 13.7506 -1.59215 -162.157 -14.6118 -180.258
lowerback 17.8733 -0.673891 8.53117
upperback -5.43844 1.41701 3.08489
thorax -16.3439 -0.105263 -1.69002
lowerneck -9.74142 -15.6532 -9.46863
upperneck -3.9223 -20.8457 17.7591
head 3.29868 -10.2361 5.16501
rclavicle -1.66979e-014 -3.18055e-015
rhumerus 41.7086 -48.9805 -55.0551
rradius 31.1353
rwrist -71.555
rhand 4.03001 -6.30189
rfingers 7.12502
rthumb 29.4443 -33.9883
lclavicle -1.66979e-014 -3.18055e-015
lhumerus -21.8728 43.5566 5.97237
lradius 43.1031
lwrist 65.0354
lhand 4.4254 23.779
lfingers 7.12502
lthumb 29.8218 -308.602
rfemur -67.2056 -35.6504 28.505
rtibia 89.3601
rfoot 3.17044 3.89567
rtoes -3.01351
lfemur 106.498 145.834 137.465
ltibia 78.2391
lfoot -1.26451 -24.9823
ltoes 9.63281
1585
root -28.0885 13.7309 -1.5071 -162.141 -14.6951 -180.325
lowerback 18.0575 -0.680333 8.45892
upperback -5.26408 1.40679 3.08686
thorax -16.245 -0.0922308 -1.65022
lowerneck -9.70386 -15.6543 -9.54276
upperneck -3.87551 -20.8496 17.8772
head 3.33043 -10.2331 5.20708
rclavicle -1.98785e-014 3.18055e-015
rhumerus 42.0847 -49.1911 -55.7078
rradius 30.9971
rwrist -71.2579
rhand 3.92109 -6.3011
rfingers 7.12502
rthumb 29.3404 -34.0058
lclavicle -1.98785e-014 3.18055e-015
lhumerus -21.9017 43.667 6.30468
lradius 42.9618
lwrist 64.9029
lhand 4.41843 23.7939
lfingers 7.12502
lthumb 29.8151 -308.586
rfemur -68.0284 -35.8283 28.78
rtibia 89.6147
rfoot 3.44703 3.72245
rtoes -2.50187
lfemur 105.784 145.524 137.875
ltibia 79.532
lfoot -1.97824 -24.0961
ltoes 5.47418
1586
root -28.0861 13.7117 -1.42219 -162.191 -14.7747 -180.316
lowerback 18.2554 -0.690283 8.45656
upperback -5.07829 1.40972 3.11726
thorax -16.14 -0.0796579 -1.62055
lowerneck -9.65957 -15.6399 -9.61564
upperneck -3.80283 -20.8334 17.9757
head 3.36377 -10.2188 5.24601
rclavicle -4.37326e-015 3.49861e-014
rhumerus 42.3701 -49.2934 -56.2479
rradius 30.8849
rwrist -71.0255
rhand 3.81612 -6.29985
rfingers 7.12502
rthumb 29.2401 -34.0221
lclavicle -4.37326e-015 3.49861e-014
lhumerus -21.9425 43.7411 6.64672
lradius 42.8216
lwrist 64.791
lhand 4.40472 23.8094
lfingers 7.12502
lthumb 29.802 -308.568
rfemur -68.7918 -35.9964 29.0116
rtibia 89.8698
rfoot 3.85202 3.80354
rtoes -1.83466
lfemur 105.227 145.203 138.471
ltibia 80.9745
lfoot -4.00197 -21.8375
ltoes -0.318504
1587
root -28.0863 13.6919 -1.33761 -162.301 -14.8448 -180.237
lowerback 18.473 -0.700664 8.51102
upperback -4.88585 1.4278 3.17374
thorax -16.038 -0.065758 -1.59703
lowerneck -9.61543 -15.6158 -9.6898
upperneck -3.69076 -20.8059 18.0546
head 3.40512 -10.1966 5.27985
rclavicle -5.1684e-015 7.95139e-015
rhumerus 42.5282 -49.2859 -56.6416
rradius 30.8024
rwrist -70.8821
rhand 3.72202 -6.29958
rfingers 7.12502
rthumb 29.1503 -34.0374
lclavicle -5.1684e-015 7.95139e-015
lhumerus -21.9904 43.8062 6.99828
lradius 42.6728
lwrist 64.6799
lhand 4.39635 23.8316
lfingers 7.12502
lthumb 29.794 -308.544
rfemur -69.4345 -36.1389 29.1913
rtibia 90.0928
rfoot 4.24864 4.14157
rtoes -1.29642
lfemur 104.823 144.855 139.239
ltibia 82.5577
lfoot -6.45735 -18.1034
ltoes -6.1966
1588
root -28.089 13.6717 -1.25336 -162.463 -14.8962 -180.101
lowerback 18.7185 -0.709819 8.60344
upperback -4.69621 1.4601 3.2499
thorax -15.9556 -0.0499861 -1.57599
lowerneck -9.56419 -15.5828 -9.76697
upperneck -3.53851 -20.7692 18.1173
head 3.45441 -10.1676 5.31002
rclavicle 1.59028e-015 -4.77083e-014
rhumerus 42.5717 -49.1848 -56.917
rradius 30.7415
rwrist -70.8097
rhand 3.65495 -6.31284
rfingers 7.12502
rthumb 29.0862 -34.0617
lclavicle 1.59028e-015 -4.77083e-014
lhumerus -22.0434 43.8552 7.34863
lradius 42.5095
lwrist 64.5833
lhand 4.39387 23.8624
lfingers 7.12502
lthumb 29.7917 -308.513
rfemur -69.9317 -36.2408 29.3159
rtibia 90.265
rfoot 4.56009 4.6687
rtoes -0.910376
lfemur 104.574 144.47 140.159
ltibia 84.2443
lfoot -8.32403 -13.2305
ltoes -10.0099
1589
root -28.0939 13.6508 -1.16963 -162.661 -14.9241 -179.925
lowerback 18.9848 -0.712773 8.71029
upperback -4.51445 1.50712 3.34046
thorax -15.8945 -0.0300695 -1.55056
lowerneck -9.51419 -15.5461 -9.84021
upperneck -3.34405 -20.7304 18.1578
head 3.51296 -10.1353 5.33231
rclavicle 1.07344e-014 6.83819e-014
rhumerus 42.4666 -48.9945 -57.036
rradius 30.7075
rwrist -70.8334
rhand 3.61054 -6.33913
rfingers 7.12502
rthumb 29.0438 -34.0953
lclavicle 1.07344e-014 6.83819e-014
lhumerus -22.0907 43.9031 7.70402
lradius 42.3327
lwrist 64.5058
lhand 4.38655 23.9047
lfingers 7.12502
lthumb 29.7847 -308.469
rfemur -70.2967 -36.3063 29.398
rtibia 90.3905
rfoot 4.74611 5.31942
rtoes -0.688739
lfemur 104.474 144.046 141.198
ltibia 85.9779
lfoot -9.20345 -7.93086
ltoes -10.318
1590
root -28.1008 13.6293 -1.08669 -162.877 -14.9218 -179.732
lowerback 19.2633 -0.705376 8.80233
upperback -4.3453 1.5665 3.43667
thorax -15.8551 -0.00451204 -1.51377
lowerneck -9.46562 -15.5086 -9.91176
upperneck -3.10984 -20.695 18.1865
head 3.58236 -10.1024 5.34925
rclavicle 3.85642e-014 -7.95139e-015
rhumerus 42.2418 -48.7447 -57.0394
rradius 30.6894
rwrist -70.9199
rhand 3.59556 -6.37603
rfingers 7.12502
rthumb 29.0295 -34.1347
lclavicle 3.85642e-014 -7.95139e-015
lhumerus -22.1173 43.9735 8.06286
lradius 42.1304
lwrist 64.4399
lhand 4.38342 23.9613
lfingers 7.12502
lthumb 29.7817 -308.412
rfemur -70.5543 -36.3344 29.448
rtibia 90.4734
rfoot 4.78935 6.00375
rtoes -0.593181
lfemur 104.501 143.58 142.308
ltibia 87.6997
lfoot -9.39249 -2.82816
ltoes -7.61927
